HIERARCHY
ROOT hip
{
  OFFSET 0 0 0
  CHANNELS 6 Xposition Yposition Zposition Zrotation Yrotation Xrotation
  JOINT abdomen
  {
    OFFSET 0 20.6881 -0.73152
    CHANNELS 3 Zrotation Xrotation Yrotation
    JOINT chest
    {
      OFFSET 0 11.7043 -0.48768
      CHANNELS 3 Zrotation Xrotation Yrotation
      JOINT neck
      {
        OFFSET 0 22.1894 -2.19456
        CHANNELS 3 Zrotation Xrotation Yrotation
        JOINT head
        {
          OFFSET -0.24384 7.07133 1.2192
          CHANNELS 3 Zrotation Xrotation Yrotation
          JOINT leftEye
          {
            OFFSET 4.14528 8.04674 8.04672
            CHANNELS 3 Zrotation Xrotation Yrotation
            End Site
            {
              OFFSET 1 0 0
            }
          }
          JOINT rightEye
          {
            OFFSET -3.6576 8.04674 8.04672
            CHANNELS 3 Zrotation Xrotation Yrotation
            End Site
            {
              OFFSET 1 0 0
            }
          }
        }
      }
      JOINT rCollar
      {
        OFFSET -2.68224 19.2634 -4.8768
        CHANNELS 3 Zrotation Xrotation Yrotation
        JOINT rShldr
        {
          OFFSET -8.77824 -1.95073 1.46304
          CHANNELS 3 Zrotation Xrotation Yrotation
          JOINT rForeArm
          {
            OFFSET -28.1742 -1.7115 0.48768
            CHANNELS 3 Zrotation Xrotation Yrotation
            JOINT rHand
            {
              OFFSET -22.5879 0.773209 7.07136
              CHANNELS 3 Zrotation Xrotation Yrotation
              JOINT rThumb1
              {
                OFFSET -1.2192 -0.487915 3.41376
                CHANNELS 3 Zrotation Xrotation Yrotation
                JOINT rThumb2
                {
                  OFFSET -3.37035 -0.52449 3.41376
                  CHANNELS 3 Zrotation Xrotation Yrotation
                  End Site
                  {
                    OFFSET -1.78271 -1.18214 1.43049
                  }
                }
              }
              JOINT rIndex1
              {
                OFFSET -7.75947 0.938293 5.60832
                CHANNELS 3 Zrotation Xrotation Yrotation
                JOINT rIndex2
                {
                  OFFSET -2.54057 -0.884171 1.56538
                  CHANNELS 3 Zrotation Xrotation Yrotation
                  End Site
                  {
                    OFFSET -1.62519 -0.234802 1.16502
                  }
                }
              }
              JOINT rMid1
              {
                OFFSET -8.24714 1.18213 3.41376
                CHANNELS 3 Zrotation Xrotation Yrotation
                JOINT rMid2
                {
                  OFFSET -3.10165 -0.590103 1.0647
                  CHANNELS 3 Zrotation Xrotation Yrotation
                  End Site
                  {
                    OFFSET -2.48547 -0.328903 0.83742
                  }
                }
              }
              JOINT rRing1
              {
                OFFSET -8.82822 0.546677 1.51678
                CHANNELS 3 Zrotation Xrotation Yrotation
                JOINT rRing2
                {
                  OFFSET -2.60934 -0.819778 -0.0198488
                  CHANNELS 3 Zrotation Xrotation Yrotation
                  End Site
                  {
                    OFFSET -2.33842 -0.294052 0.168128
                  }
                }
              }
              JOINT rPinky1
              {
                OFFSET -8.27202 -0.0477905 -0.4584
                CHANNELS 3 Zrotation Xrotation Yrotation
                JOINT rPinky2
                {
                  OFFSET -1.82734 -0.647385 -0.700984
                  CHANNELS 3 Zrotation Xrotation Yrotation
                  End Site
                  {
                    OFFSET -1.69225 -0.51767 -0.607171
                  }
                }
              }
            }
          }
        }
      }
      JOINT lCollar
      {
        OFFSET 2.68224 19.2634 -4.8768
        CHANNELS 3 Zrotation Xrotation Yrotation
        JOINT lShldr
        {
          OFFSET 8.77824 -1.95073 1.46304
          CHANNELS 3 Zrotation Xrotation Yrotation
          JOINT lForeArm
          {
            OFFSET 28.1742 -1.7115 0.48768
            CHANNELS 3 Zrotation Xrotation Yrotation
            JOINT lHand
            {
              OFFSET 22.5879 0.773209 7.07136
              CHANNELS 3 Zrotation Xrotation Yrotation
              JOINT lThumb1
              {
                OFFSET 1.2192 -0.487915 3.41376
                CHANNELS 3 Zrotation Xrotation Yrotation
                JOINT lThumb2
                {
                  OFFSET 3.37035 -0.52449 3.41376
                  CHANNELS 3 Zrotation Xrotation Yrotation
                  End Site
                  {
                    OFFSET 1.78271 -1.18214 1.43049
                  }
                }
              }
              JOINT lIndex1
              {
                OFFSET 7.75947 0.938293 5.60832
                CHANNELS 3 Zrotation Xrotation Yrotation
                JOINT lIndex2
                {
                  OFFSET 2.54057 -0.884171 1.56538
                  CHANNELS 3 Zrotation Xrotation Yrotation
                  End Site
                  {
                    OFFSET 1.62519 -0.234802 1.16502
                  }
                }
              }
              JOINT lMid1
              {
                OFFSET 8.24714 1.18213 3.41376
                CHANNELS 3 Zrotation Xrotation Yrotation
                JOINT lMid2
                {
                  OFFSET 3.10165 -0.590103 1.0647
                  CHANNELS 3 Zrotation Xrotation Yrotation
                  End Site
                  {
                    OFFSET 2.48547 -0.328903 0.83742
                  }
                }
              }
              JOINT lRing1
              {
                OFFSET 8.82822 0.546677 1.51678
                CHANNELS 3 Zrotation Xrotation Yrotation
                JOINT lRing2
                {
                  OFFSET 2.60934 -0.819778 -0.0198488
                  CHANNELS 3 Zrotation Xrotation Yrotation
                  End Site
                  {
                    OFFSET 2.33842 -0.294052 0.168128
                  }
                }
              }
              JOINT lPinky1
              {
                OFFSET 8.27202 -0.0477905 -0.4584
                CHANNELS 3 Zrotation Xrotation Yrotation
                JOINT lPinky2
                {
                  OFFSET 1.82734 -0.647385 -0.700984
                  CHANNELS 3 Zrotation Xrotation Yrotation
                  End Site
                  {
                    OFFSET 1.69225 -0.51767 -0.607171
                  }
                }
              }
            }
          }
        }
      }
    }
  }
  JOINT rButtock
  {
    OFFSET -8.77824 4.35084 1.2192
    CHANNELS 3 Zrotation Xrotation Yrotation
    JOINT rThigh
    {
      OFFSET 0 -1.70687 -2.19456
      CHANNELS 3 Zrotation Xrotation Yrotation
      JOINT rShin
      {
        OFFSET 0 -36.8199 0.73152
        CHANNELS 3 Zrotation Xrotation Yrotation
        JOINT rFoot
        {
          OFFSET 0.73152 -45.1104 -5.12064
          CHANNELS 3 Zrotation Xrotation Yrotation
          End Site
          {
            OFFSET -1.1221 -3.69964 12.103
          }
        }
      }
    }
  }
  JOINT lButtock
  {
    OFFSET 8.77824 4.35084 1.2192
    CHANNELS 3 Zrotation Xrotation Yrotation
    JOINT lThigh
    {
      OFFSET 0 -1.70687 -2.19456
      CHANNELS 3 Zrotation Xrotation Yrotation
      JOINT lShin
      {
        OFFSET 0 -36.8199 0.73152
        CHANNELS 3 Zrotation Xrotation Yrotation
        JOINT lFoot
        {
          OFFSET -0.73152 -45.1104 -5.12064
          CHANNELS 3 Zrotation Xrotation Yrotation
          End Site
          {
            OFFSET 1.1221 -3.69964 12.103
          }
        }
      }
    }
  }
}
MOTION
Frames:	8
Frame Time:	0.00833333
-28.9724 82.7592 52.099 0.6009 134.919 -0.4998 -1.52711 13.4979 4.29677 0.78032 -5.05099 1.26031 -12.4969 -0.991885 -8.216 17.4005 10.7571 -12.4674 -0.0 0.0 0.0 -0.0 0.0 0.0 9.30631e-14 3.38953e-14 -6.94193e-13 79.1843 20.5816 -1.31596 -16.7468 -9.40004 31.2658 -0.0194525 3.98602 0.561108 6.57124e-10 -9.21873e-10 -1.15152e-09 1.13016e-09 -1.59269e-09 -1.99409e-09 6.57128e-10 -9.21876e-10 -1.15153e-09 7.73091 5.47488 0.417314 6.57125e-10 -9.21876e-10 -1.15152e-09 2.90554 0.965183 0.102902 6.57134e-10 -9.21878e-10 -1.15152e-09 10.2786 0.731801 0.0259123 6.57117e-10 -9.21873e-10 -1.15152e-09 2.22167 -0.733487 -0.20892 9.30373e-14 3.38898e-14 -6.94444e-13 -80.7701 17.3973 2.16219 15.5369 -8.264 -28.7008 0.0329352 5.17258 -0.72896 1.09703e-09 -2.03384e-09 -3.30491e-10 1.89507e-09 -3.52833e-09 -5.79711e-10 1.09702e-09 -2.03384e-09 -3.30485e-10 -7.73091 5.47488 -0.417314 1.09703e-09 -2.03384e-09 -3.30496e-10 -2.90554 0.965183 -0.102902 1.09702e-09 -2.03384e-09 -3.30493e-10 -10.2786 0.731801 -0.0259123 1.09703e-09 -2.03384e-09 -3.30501e-10 -2.22167 -0.733487 0.20892 -2.03217e-16 0.0 -3.88251e-19 -1.72229 -8.09332 -5.59971 -0.22394 34.1634 0.605449 -1.09675 -18.8542 -1.55717 2.03217e-16 0.0 3.88251e-19 -0.85959 -13.6351 8.42725 0.306237 38.227 -0.586034 -2.02262 -15.562 -6.92851
-28.6946 82.6917 52.1519 0.5564 135.274 -0.745 -1.87523 13.4932 4.3281 0.951221 -5.08755 1.25933 -12.4404 -0.900942 -8.20987 17.5493 11.0934 -12.4891 -0.0 0.0 0.0 -0.0 0.0 0.0 2.79824e-15 -1.39149e-14 9.75349e-14 79.2353 20.5464 -1.49812 -16.7384 -9.39168 31.2476 -0.0216246 4.20097 0.591475 -1.49595e-09 3.27345e-09 6.15015e-10 -2.58568e-09 5.67051e-09 1.07573e-09 -1.49595e-09 3.27345e-09 6.15005e-10 7.73091 5.47488 0.417314 -1.49595e-09 3.27345e-09 6.15013e-10 2.90554 0.965183 0.102902 -1.49595e-09 3.27345e-09 6.15013e-10 10.2786 0.731801 0.0259123 -1.49596e-09 3.27345e-09 6.15024e-10 2.22167 -0.733487 -0.20892 2.74307e-15 -1.39157e-14 9.72802e-14 -80.8309 17.8065 2.31159 15.5712 -8.29487 -28.7722 0.0317083 5.07538 -0.71519 -1.19178e-09 1.74166e-09 1.28264e-09 -2.05611e-09 3.02903e-09 2.2273e-09 -1.19179e-09 1.74166e-09 1.28265e-09 -7.73091 5.47488 -0.417314 -1.19177e-09 1.74166e-09 1.28264e-09 -2.90554 0.965183 -0.102902 -1.19178e-09 1.74166e-09 1.28264e-09 -10.2786 0.731801 -0.0259123 -1.19177e-09 1.74166e-09 1.28263e-09 -2.22167 -0.733487 0.20892 -2.03217e-16 0.0 -3.88251e-19 -1.91604 -8.1342 -6.08756 -0.236552 34.8629 0.615534 -0.956661 -18.8897 -1.21663 2.03217e-16 0.0 3.88251e-19 -1.28714 -12.9047 7.81309 0.288601 37.4049 -0.576223 -1.55931 -15.572 -5.67967
-28.4149 82.6768 52.2078 0.608 135.61 -0.9148 -2.2642 13.4857 4.35059 1.12065 -5.14272 1.25407 -12.3896 -0.818282 -8.20025 17.712 11.4538 -12.5039 -0.0 0.0 0.0 -0.0 0.0 0.0 -9.34153e-14 -6.1526e-14 9.02579e-13 79.3188 20.4492 -1.67779 -16.7277 -9.38123 31.2246 -0.0243575 4.452 0.626963 -3.61952e-09 7.47489e-09 2.40169e-09 -6.25045e-09 1.29441e-08 4.18016e-09 -3.61952e-09 7.47489e-09 2.40168e-09 7.73091 5.47488 0.417314 -3.61952e-09 7.47489e-09 2.40168e-09 2.90554 0.965183 0.102902 -3.61952e-09 7.47489e-09 2.40168e-09 10.2786 0.731801 0.0259123 -3.61952e-09 7.4749e-09 2.4017e-09 2.22167 -0.733487 -0.20892 -9.35052e-14 -6.15229e-14 9.02323e-13 -80.8763 18.2011 2.47338 15.6062 -8.32645 -28.8455 0.0305036 4.97861 -0.701483 -3.44979e-09 5.63344e-09 2.94901e-09 -5.95379e-09 9.7876e-09 5.1263e-09 -3.44981e-09 5.63344e-09 2.94902e-09 -7.73091 5.47488 -0.417314 -3.44979e-09 5.63344e-09 2.949e-09 -2.90554 0.965183 -0.102902 -3.4498e-09 5.63344e-09 2.94901e-09 -10.2786 0.731801 -0.0259123 -3.44979e-09 5.63344e-09 2.949e-09 -2.22167 -0.733487 0.20892 -2.03217e-16 0.0 -3.88251e-19 -2.17949 -8.24097 -6.61177 -0.250891 35.643 0.62651 -0.767151 -18.865 -0.759706 2.03217e-16 0.0 3.88251e-19 -1.6704 -12.2101 7.20848 0.271759 36.6027 -0.56612 -1.14126 -15.6078 -4.54357
-28.1763 82.6724 52.2344 0.3666 135.935 -1.2462 -2.66531 13.4781 4.34811 1.27756 -5.18567 1.24114 -12.3443 -0.752651 -8.18781 17.8524 11.7527 -12.5076 -0.0 0.0 0.0 -0.0 0.0 0.0 -1.5495e-13 -8.50829e-14 1.37415e-12 79.4278 20.2455 -1.80401 -16.7082 -9.36215 31.1823 -0.0272177 4.70416 0.662631 -4.81226e-09 9.96194e-09 3.45526e-09 -8.3086e-09 1.72493e-08 6.01046e-09 -4.81225e-09 9.96194e-09 3.45525e-09 7.73091 5.47488 0.417314 -4.81225e-09 9.96194e-09 3.45526e-09 2.90554 0.965183 0.102902 -4.81225e-09 9.96194e-09 3.45526e-09 10.2786 0.731801 0.0259123 -4.81226e-09 9.96195e-09 3.45527e-09 2.22167 -0.733487 -0.20892 -1.55065e-13 -8.50781e-14 1.3739e-12 -80.89 18.5913 2.59762 15.6345 -8.35201 -28.9048 0.0292612 4.87705 -0.687102 -4.73364e-09 8.04571e-09 4.01004e-09 -8.16955e-09 1.39761e-08 6.97132e-09 -4.73365e-09 8.04571e-09 4.01006e-09 -7.73091 5.47488 -0.417314 -4.73363e-09 8.04571e-09 4.01004e-09 -2.90554 0.965183 -0.102902 -4.73364e-09 8.04571e-09 4.01004e-09 -10.2786 0.731801 -0.0259123 -4.73363e-09 8.04571e-09 4.01003e-09 -2.22167 -0.733487 0.20892 -2.03217e-16 0.0 -3.88251e-19 -2.48041 -8.4612 -7.13599 -0.267896 36.5498 0.640341 -0.567074 -18.7422 -0.279962 2.03217e-16 0.0 3.88251e-19 -2.00005 -11.5991 6.64915 0.25738 35.9074 -0.555547 -0.865927 -15.6608 -3.79882
-27.9519 82.6378 52.2894 0.1227 136.303 -1.5102 -3.08203 13.4667 4.31291 1.42158 -5.20667 1.21842 -12.3088 -0.710255 -8.17278 17.9718 11.9877 -12.4988 -0.0 0.0 0.0 -0.0 0.0 0.0 -1.712e-13 -7.07321e-14 1.39167e-12 79.5643 19.9016 -1.84906 -16.6713 -9.32632 31.1029 -0.0303438 4.97525 0.700994 -4.78554e-09 1.0259e-08 3.52037e-09 -8.26205e-09 1.77628e-08 6.12325e-09 -4.78553e-09 1.0259e-08 3.52036e-09 7.73091 5.47488 0.417314 -4.78554e-09 1.0259e-08 3.52037e-09 2.90554 0.965183 0.102902 -4.78553e-09 1.0259e-08 3.52037e-09 10.2786 0.731801 0.0259123 -4.78554e-09 1.0259e-08 3.52038e-09 2.22167 -0.733487 -0.20892 -1.71325e-13 -7.07294e-14 1.39145e-12 -80.8584 18.9982 2.66907 15.6565 -8.37189 -28.9508 0.0278766 4.76189 -0.6708 -4.71741e-09 8.54329e-09 4.33262e-09 -8.14064e-09 1.48385e-08 7.52981e-09 -4.71743e-09 8.54329e-09 4.33263e-09 -7.73091 5.47488 -0.417314 -4.71741e-09 8.54329e-09 4.33261e-09 -2.90554 0.965183 -0.102902 -4.71742e-09 8.54329e-09 4.33261e-09 -10.2786 0.731801 -0.0259123 -4.71741e-09 8.54329e-09 4.33261e-09 -2.22167 -0.733487 0.20892 -2.03217e-16 0.0 -3.88251e-19 -2.80526 -8.80239 -7.63878 -0.287703 37.5899 0.657736 -0.388174 -18.5288 0.153636 2.03217e-16 0.0 3.88251e-19 -2.27207 -11.0987 6.13664 0.246319 35.3577 -0.54423 -0.776628 -15.7522 -3.55902
-27.7222 82.5859 52.3672 0.0179 136.636 -1.7107 -3.52599 13.4516 4.25475 1.55774 -5.22267 1.18809 -12.2818 -0.68514 -8.15477 18.0855 12.1976 -12.4796 -0.0 0.0 0.0 -0.0 0.0 0.0 -1.63756e-13 -3.36937e-14 1.14948e-12 79.7313 19.4486 -1.84508 -16.6229 -9.27924 30.9986 -0.0340535 5.27485 0.743435 -4.03617e-09 9.28928e-09 3.01691e-09 -6.96817e-09 1.60828e-08 5.248e-09 -4.03616e-09 9.28928e-09 3.01691e-09 7.73091 5.47488 0.417314 -4.03617e-09 9.28928e-09 3.01691e-09 2.90554 0.965183 0.102902 -4.03616e-09 9.28928e-09 3.01691e-09 10.2786 0.731801 0.0259123 -4.03617e-09 9.28928e-09 3.01692e-09 2.22167 -0.733487 -0.20892 -1.63886e-13 -3.36957e-14 1.14928e-12 -80.7924 19.4104 2.71473 15.6754 -8.38899 -28.9902 0.0264317 4.63839 -0.653323 -3.92904e-09 7.98046e-09 4.2538e-09 -6.77838e-09 1.38584e-08 7.38862e-09 -3.92905e-09 7.98046e-09 4.25381e-09 -7.73091 5.47488 -0.417314 -3.92904e-09 7.98046e-09 4.25379e-09 -2.90554 0.965183 -0.102902 -3.92905e-09 7.98045e-09 4.2538e-09 -10.2786 0.731801 -0.0259123 -3.92904e-09 7.98046e-09 4.25379e-09 -2.22167 -0.733487 0.20892 -2.03217e-16 0.0 -3.88251e-19 -3.1776 -9.24019 -8.14451 -0.310328 38.7405 0.678009 -0.206168 -18.2387 0.604531 2.03217e-16 0.0 3.88251e-19 -2.4976 -10.6799 5.65262 0.237479 34.902 -0.53224 -0.816101 -15.8827 -3.66271
-27.5397 82.5377 52.4216 -0.2777 137.035 -2.0057 -3.98073 13.4409 4.18377 1.68307 -5.24285 1.15334 -12.2543 -0.667806 -8.13353 18.1787 12.3588 -12.4509 -0.0 0.0 0.0 -0.0 0.0 0.0 -1.4029e-13 6.2769e-15 7.73095e-13 79.9228 18.9391 -1.83077 -16.5773 -9.23494 30.9008 -0.0378595 5.55576 0.783278 -2.84093e-09 7.43046e-09 2.20453e-09 -4.90462e-09 1.28636e-08 3.83518e-09 -2.84092e-09 7.43046e-09 2.20453e-09 7.73091 5.47488 0.417314 -2.84093e-09 7.43045e-09 2.20453e-09 2.90554 0.965183 0.102902 -2.84092e-09 7.43045e-09 2.20453e-09 10.2786 0.731801 0.0259123 -2.84093e-09 7.43045e-09 2.20453e-09 2.22167 -0.733487 -0.20892 -1.40422e-13 6.27016e-15 7.72929e-13 -80.7113 19.7891 2.74771 15.688 -8.40045 -29.0166 0.0251273 4.52242 -0.63692 -2.70583e-09 6.69571e-09 3.82033e-09 -4.66547e-09 1.16243e-08 6.63083e-09 -2.70584e-09 6.69571e-09 3.82034e-09 -7.73091 5.47488 -0.417314 -2.70583e-09 6.6957e-09 3.82033e-09 -2.90554 0.965183 -0.102902 -2.70584e-09 6.6957e-09 3.82033e-09 -10.2786 0.731801 -0.0259123 -2.70582e-09 6.6957e-09 3.82032e-09 -2.22167 -0.733487 0.20892 -2.03217e-16 0.0 -3.88251e-19 -3.62274 -9.77414 -8.68606 -0.336732 40.004 0.70119 0.0207003 -17.8442 1.17672 2.03217e-16 0.0 3.88251e-19 -2.69162 -10.3064 5.20284 0.229564 34.4921 -0.519883 -0.932521 -16.0138 -3.97639
-27.3815 82.5038 52.4462 -0.6734 137.574 -2.3639 -4.42973 13.4428 4.11011 1.79462 -5.27641 1.11733 -12.2175 -0.648749 -8.10882 18.2365 12.4475 -12.4136 -0.0 0.0 0.0 -0.0 0.0 0.0 -1.08472e-13 2.9424e-14 3.88077e-13 80.1315 18.4257 -1.84438 -16.5491 -9.20759 30.8406 -0.0410186 5.77079 0.813813 -1.47661e-09 5.06023e-09 1.34288e-09 -2.54907e-09 8.75922e-09 2.33524e-09 -1.4766e-09 5.06023e-09 1.34288e-09 7.73091 5.47488 0.417314 -1.4766e-09 5.06023e-09 1.34287e-09 2.90554 0.965183 0.102902 -1.4766e-09 5.06023e-09 1.34288e-09 10.2786 0.731801 0.0259123 -1.47661e-09 5.06023e-09 1.34288e-09 2.22167 -0.733487 -0.20892 -1.08608e-13 2.94151e-14 3.87928e-13 -80.6349 20.0956 2.78118 15.6912 -8.40338 -29.0234 0.0241284 4.42988 -0.623834 -1.38509e-09 5.02752e-09 3.07897e-09 -2.38462e-09 8.72473e-09 5.33952e-09 -1.3851e-09 5.02752e-09 3.07898e-09 -7.73091 5.47488 -0.417314 -1.38509e-09 5.02751e-09 3.07897e-09 -2.90554 0.965183 -0.102902 -1.38509e-09 5.02751e-09 3.07898e-09 -10.2786 0.731801 -0.0259123 -1.38508e-09 5.02751e-09 3.07896e-09 -2.22167 -0.733487 0.20892 -2.03217e-16 0.0 -3.88251e-19 -4.1675 -10.4033 -9.29671 -0.367922 41.3828 0.727373 0.329075 -17.3163 1.97271 2.03217e-16 0.0 3.88251e-19 -2.8679 -9.94208 4.79342 0.221313 34.08 -0.507498 -1.07243 -16.1071 -4.36607
